<?xml version="1.0" encoding="iso-8859-1"?>
<!-- Generator: Adobe Illustrator 19.0.0, SVG Export Plug-In . SVG Version: 6.00 Build 0)  -->
<svg version="1.1" id="Capa_1" xmlns="http://www.w3.org/2000/svg" xmlns:xlink="http://www.w3.org/1999/xlink" x="0px" y="0px"
	 viewBox="0 0 512.616 512.616" style="enable-background:new 0 0 512.616 512.616;" xml:space="preserve">
<polyline points="156.092,97.864 156.092,0 238.532,29.632 238.532,97.864 "/>
<polygon style="fill:#CCCCCC;" points="0.308,200.592 109.012,93.256 214.868,93.256 263.892,93.256 403.604,93.256 
	512.308,200.592 "/>
<rect x="0.308" y="200.616" width="512" height="312"/>
<g>
	<rect x="67.428" y="288.616" style="fill:#FFFFFF;" width="42.224" height="41.688"/>
	<rect x="151.316" y="288.616" style="fill:#FFFFFF;" width="42.224" height="41.688"/>
	<rect x="235.196" y="288.616" style="fill:#FFFFFF;" width="42.224" height="41.688"/>
	<rect x="319.084" y="288.616" style="fill:#FFFFFF;" width="42.224" height="41.688"/>
	<rect x="402.948" y="288.616" style="fill:#FFFFFF;" width="42.224" height="41.688"/>
	<rect x="67.428" y="377.496" style="fill:#FFFFFF;" width="42.224" height="41.688"/>
	<rect x="151.316" y="377.496" style="fill:#FFFFFF;" width="42.224" height="41.688"/>
	<rect x="235.196" y="377.496" style="fill:#FFFFFF;" width="42.224" height="41.688"/>
	<rect x="319.084" y="377.496" style="fill:#FFFFFF;" width="42.224" height="41.688"/>
	<rect x="402.948" y="377.496" style="fill:#FFFFFF;" width="42.224" height="41.688"/>
</g>
<g>
</g>
<g>
</g>
<g>
</g>
<g>
</g>
<g>
</g>
<g>
</g>
<g>
</g>
<g>
</g>
<g>
</g>
<g>
</g>
<g>
</g>
<g>
</g>
<g>
</g>
<g>
</g>
<g>
</g>
</svg>
